# xmcd
# 
# Track frame offsets:
#     150
#     19861
#     41057
#     60044
#     93372
#     112233
#     140805
# 
# Disc length: 2058
# 
# Revision: 0
# Processed by: cddbd v1.5.2PL0 Copyright (c) Steve Scherf et al.
# Submitted via: fre:ac v1.0.17
# 
DISCID=5c080807
DTITLE=Billy Jones Bluz - I'm A Blues Man
DYEAR=2013
DGENRE=Blues
TTITLE0=The Iceman
TTITLE1=I'm Yo Freak
TTITLE2=Nothin' Buyt the Blues
TTITLE3=Im a Blues Man
TTITLE4=Do Right Baby
TTITLE5=Love Nobody Else
TTITLE6=You and Me
EXTD=
EXTT0=
EXTT1=
EXTT2=
EXTT3=
EXTT4=
EXTT5=
EXTT6=
PLAYORDER=
